<svg width="1em" height="1em" viewBox="0 0 12 12" fill="currentColor">
    <path
            id="path-1"
            d="M6,0C9.314,0 12,2.686 12,6C12,9.314 9.314,12 6,12C2.686,12 0,9.314 0,6C0,2.686 2.686,0 6,0ZM7.455,9.287L7.455,9.287C7.802,9.058 7.837,8.857 7.777,8.763L6.845,7.703C6.84,7.653 6.788,7.658 6.788,7.658L6.245,8.053C6.202,8.156 6.102,8.215 5.946,8.228C5.581,8.26 5.078,7.907 4.436,7.169C3.795,6.431 3.535,5.859 3.661,5.5C3.699,5.348 3.8,5.289 3.899,5.231L4.442,4.835L4.433,4.737L3.549,3.623C3.445,3.632 3.284,3.597 2.837,3.884C2.472,4.512 2.381,5.264 2.394,5.412C2.74,6.375 3.382,7.112 3.738,7.578L3.855,7.716C4.323,8.271 4.9,8.866 5.78,9.335C5.889,9.375 6.366,9.432 6.887,9.387C7.095,9.369 7.304,9.35 7.455,9.287ZM6.052,5.42L6.037,5.612C6.044,5.721 6.176,5.916 6.288,5.937L7.803,6.059C7.894,6.065 8.011,5.874 8.022,5.773C8.033,5.671 7.938,5.521 7.847,5.513L6.974,5.495L9.227,3.518C9.307,3.451 9.256,3.267 9.189,3.188C9.122,3.108 8.938,3.014 8.859,3.082L6.55,5.087L6.627,4.135C6.638,4.034 6.552,3.929 6.45,3.924C6.346,3.92 6.172,4.007 6.159,4.097L6.052,5.42Z"
    />
</svg>
