<svg width="1em" height="1em" viewBox="0 0 1024 1024" fill="currentColor">
    <path
            d="M512,0 C794.8,0 1024,229.2 1024,512 C1024,794.8 794.8,1024 512,1024 C229.2,1024 0,794.8 0,512 C0,229.2 229.2,0 512,0 Z M636.196665,792.519593 L636.195911,792.518338 C665.804181,772.972737 668.793383,755.796053 663.639435,747.749638 L584.064827,657.310526 C583.695941,653.094136 579.238063,653.48415 579.238063,653.48415 L532.943863,687.195825 C529.219987,695.979203 520.71514,700.971944 507.383208,702.138337 C476.261147,704.861164 433.324641,674.747856 378.570159,611.758061 C323.818888,548.808645 301.616246,499.926146 312.372848,469.323608 C315.685211,456.327976 324.232401,451.33153 332.737568,446.338761 L379.031768,412.627086 L378.297446,404.23375 L302.812123,309.187903 C293.938389,309.964254 280.241075,306.954305 242.082784,331.456244 C210.95802,385.004287 203.142129,449.219312 204.245337,461.829038 C233.850739,543.974305 288.60169,606.923749 318.94409,646.636835 L328.921352,658.470183 C368.914443,705.796219 418.107519,756.566329 493.269294,796.566537 C502.511914,800.006575 543.242031,804.900733 587.696023,801.011513 C605.443491,799.458811 623.23362,797.902376 636.196665,792.519593 Z M782.974686,294.889462 L782.974686,278.424767 C781.612404,269.27466 769.024192,253.592984 759.415064,252.571462 L629.707378,252.571462 C621.933881,252.675244 613.2279,269.703737 613.00578,278.424767 C612.769068,287.160389 621.934336,299.28194 629.707378,299.296722 L704.112075,294.889462 L525.990826,478.455859 C519.71311,484.733575 525.234692,500.049708 531.512408,506.327424 C537.790124,512.60514 554.054706,519.349011 560.332422,513.071295 L742.950369,326.613132 L742.950369,408.132453 C742.669308,416.853293 750.679252,425.159649 759.415064,424.834051 C768.269138,424.508453 782.545457,415.935288 782.974686,408.132453 L782.974686,294.889462 Z"
            id="path-1">
    </path>
</svg>
