<svg width="19" height="19" viewBox="0 0 19 19" fill="none" xmlns="http://www.w3.org/2000/svg">
    <path d="M17.9489 9.45534L17.9615 9.46287C17.9825 9.47549 17.9938 9.48905 17.9986 9.49704L17.9998 9.49897C17.9988 9.51404 17.9951 9.52199 17.9926 9.52635C17.9893 9.53197 17.9814 9.54275 17.9615 9.55471L17.9507 9.56116L14.7819 11.6865L15.513 15.4575C15.513 15.4575 15.5131 15.4604 15.5129 15.463C15.5124 15.4703 15.5107 15.4802 15.5074 15.4911C15.505 15.4992 15.5024 15.5056 15.5003 15.51C15.4798 15.5286 15.4663 15.5344 15.4608 15.5364C15.4567 15.5378 15.4468 15.541 15.4242 15.538L11.6601 14.7697L9.54023 17.9689L9.53404 17.9783L9.52827 17.9879C9.52394 17.9892 9.51483 17.9912 9.5 17.9912C9.46398 17.9912 9.4436 17.9869 9.43441 17.9843L9.4308 17.9783L9.42461 17.9689L7.30471 14.7697L3.53486 15.5392C3.53188 15.539 3.52746 15.5382 3.5236 15.537L3.49386 15.4974L3.45419 15.4676C3.45301 15.4638 3.45232 15.46 3.45207 15.457L4.2214 11.6865L1.01295 9.56042L1.00693 9.5568C1.00427 9.54762 1 9.52724 1 9.49121C1 9.47637 1.002 9.46728 1.00329 9.46296L1.01473 9.45609L4.2208 7.29296L3.4531 3.53118C3.45654 3.52328 3.46635 3.5054 3.49026 3.48149L3.4971 3.47466L3.49863 3.47463C3.50962 3.4745 3.52091 3.4756 3.53086 3.47759L3.53374 3.47816L7.30668 4.20965L9.42349 1.01517C9.42349 1.01517 9.42683 1.01248 9.43181 1.01009C9.44242 1.005 9.46015 1 9.48242 1C9.50469 1 9.52242 1.005 9.53303 1.01009C9.53801 1.01248 9.54135 1.01517 9.54135 1.01517L11.6581 4.20965L15.4311 3.47816L15.4339 3.4776C15.4546 3.47347 15.4771 3.4738 15.4947 3.47759C15.5006 3.48934 15.5047 3.49978 15.5074 3.50888C15.5125 3.52569 15.5149 3.54384 15.5115 3.56816L14.7819 7.29257L17.9489 9.45534ZM15.3757 15.402L14.6341 11.6946C14.6284 11.6446 14.6357 11.6235 14.637 11.6202L14.6377 11.6185C14.6377 11.6185 14.6391 11.6161 14.6405 11.6145C14.6426 11.6119 14.649 11.6048 14.664 11.5947L17.8194 9.49121L14.664 7.38768L14.6382 7.37043L14.6339 7.36832C14.6334 7.36535 14.6329 7.36189 14.6325 7.35793C14.6316 7.34822 14.6319 7.33798 14.6331 7.32829L15.3757 3.61555L11.6668 4.35732C11.6668 4.35732 11.6622 4.3572 11.658 4.35661C11.6493 4.35538 11.6389 4.35257 11.6286 4.3481C11.6202 4.34447 11.6143 4.34076 11.6108 4.33824L11.6101 4.33701L11.6035 4.32714L9.50428 1.17827L7.35594 4.335L7.34864 4.34716C7.34864 4.34716 7.3463 4.34947 7.34193 4.35146C7.33644 4.35395 7.32171 4.3591 7.29497 4.35671L3.58918 3.61555L4.33175 7.32838C4.33298 7.33806 4.3332 7.34828 4.33232 7.35799C4.33196 7.36191 4.33146 7.36535 4.33091 7.3683L4.32667 7.37042L1.14549 9.49121L4.30077 11.5947C4.312 11.6022 4.3195 11.6113 4.32529 11.6267C4.33183 11.6442 4.33458 11.667 4.33176 11.6892L3.58918 15.402L7.26428 14.667H7.3199C7.33473 14.667 7.34422 14.669 7.34855 14.6703L7.35593 14.6826L7.36399 14.6944L9.50428 17.8393L11.6208 14.6646L11.6271 14.6519L11.6321 14.6533L15.3757 15.402ZM6.0625 9.49121C6.0625 7.58766 7.59645 6.05371 9.5 6.05371C11.3713 6.05371 12.9375 7.59056 12.9375 9.49121C12.9375 11.3919 11.3713 12.9287 9.5 12.9287C7.59645 12.9287 6.0625 11.3948 6.0625 9.49121ZM6.1875 9.49121C6.1875 11.3101 7.63776 12.8037 9.5 12.8037C11.323 12.8037 12.8125 11.3142 12.8125 9.49121C12.8125 7.66819 11.323 6.17871 9.5 6.17871C7.63776 6.17871 6.1875 7.67228 6.1875 9.49121Z" fill="#EF9C00" stroke="#EF9C00"/>
</svg>
